{
	"asset":{
		"generator":"Khronos glTF Blender I/O v3.6.27",
		"version":"2.0"
	},
	"scene":0,
	"scenes":[
		{
			"name":"Scene",
			"nodes":[
				0,
				1,
				2,
				3
			]
		}
	],
	"nodes":[
		{
			"mesh":0,
			"name":"Cube.025",
			"scale":[
				0.2376101315021515,
				8.126210741465911e-05,
				0.1635841280221939
			],
			"translation":[
				0.5121870040893555,
				1.483802318572998,
				-1.5633203983306885
			]
		},
		{
			"mesh":1,
			"name":"Cube.026",
			"rotation":[
				0,
				0.10845516622066498,
				0,
				0.994101345539093
			],
			"scale":[
				0.23761014640331268,
				8.37587722344324e-05,
				0.16358411312103271
			],
			"translation":[
				0.5121870040893555,
				1.4848788976669312,
				-1.5633203983306885
			]
		},
		{
			"mesh":2,
			"name":"Cube.027",
			"rotation":[
				0,
				-0.13755421340465546,
				0,
				0.9904942512512207
			],
			"scale":[
				0.2376101315021515,
				8.126210741465911e-05,
				0.1635841280221939
			],
			"translation":[
				0.5121870040893555,
				1.4848017692565918,
				-1.5633203983306885
			]
		},
		{
			"mesh":3,
			"name":"Cube.051",
			"rotation":[
				-0.13446122407913208,
				0,
				0.9909188747406006,
				2.779663077490113e-07
			],
			"scale":[
				0.2376101315021515,
				8.126210741465911e-05,
				0.1635841429233551
			],
			"translation":[
				0.5121870040893555,
				1.4854472875595093,
				-1.5633203983306885
			]
		}
	],
	"materials":[
		{
			"doubleSided":true,
			"name":"Material.014",
			"pbrMetallicRoughness":{
				"baseColorTexture":{
					"index":0
				},
				"metallicFactor":0,
				"roughnessFactor":0.5
			}
		},
		{
			"doubleSided":true,
			"name":"Material.019",
			"pbrMetallicRoughness":{
				"baseColorTexture":{
					"index":1
				},
				"metallicFactor":0,
				"roughnessFactor":0.5
			}
		}
	],
	"meshes":[
		{
			"name":"Cube.046",
			"primitives":[
				{
					"attributes":{
						"POSITION":0,
						"NORMAL":1,
						"TEXCOORD_0":2
					},
					"indices":3,
					"material":0
				}
			]
		},
		{
			"name":"Cube.048",
			"primitives":[
				{
					"attributes":{
						"POSITION":4,
						"NORMAL":5,
						"TEXCOORD_0":6
					},
					"indices":3,
					"material":0
				}
			]
		},
		{
			"name":"Cube.049",
			"primitives":[
				{
					"attributes":{
						"POSITION":7,
						"NORMAL":8,
						"TEXCOORD_0":9
					},
					"indices":10
				}
			]
		},
		{
			"name":"Cube.059",
			"primitives":[
				{
					"attributes":{
						"POSITION":11,
						"NORMAL":12,
						"TEXCOORD_0":13
					},
					"indices":14,
					"material":1
				}
			]
		}
	],
	"textures":[
		{
			"sampler":0,
			"source":0
		},
		{
			"sampler":0,
			"source":1
		}
	],
	"images":[
		{
			"bufferView":4,
			"mimeType":"image/jpeg",
			"name":"IMG_4DE8E179F8C0-1"
		},
		{
			"bufferView":16,
			"mimeType":"image/png",
			"name":"Capture d\u2019e\u0301cran 2023-11-06 a\u0300 11.26.04"
		}
	],
	"accessors":[
		{
			"bufferView":0,
			"componentType":5126,
			"count":24,
			"max":[
				1,
				1,
				1
			],
			"min":[
				-1,
				-1,
				-1
			],
			"type":"VEC3"
		},
		{
			"bufferView":1,
			"componentType":5126,
			"count":24,
			"type":"VEC3"
		},
		{
			"bufferView":2,
			"componentType":5126,
			"count":24,
			"type":"VEC2"
		},
		{
			"bufferView":3,
			"componentType":5123,
			"count":36,
			"type":"SCALAR"
		},
		{
			"bufferView":5,
			"componentType":5126,
			"count":24,
			"max":[
				1,
				1,
				1
			],
			"min":[
				-1,
				-1,
				-1
			],
			"type":"VEC3"
		},
		{
			"bufferView":6,
			"componentType":5126,
			"count":24,
			"type":"VEC3"
		},
		{
			"bufferView":7,
			"componentType":5126,
			"count":24,
			"type":"VEC2"
		},
		{
			"bufferView":8,
			"componentType":5126,
			"count":20,
			"max":[
				1,
				1,
				1
			],
			"min":[
				-1,
				-1,
				-1
			],
			"type":"VEC3"
		},
		{
			"bufferView":9,
			"componentType":5126,
			"count":20,
			"type":"VEC3"
		},
		{
			"bufferView":10,
			"componentType":5126,
			"count":20,
			"type":"VEC2"
		},
		{
			"bufferView":11,
			"componentType":5123,
			"count":30,
			"type":"SCALAR"
		},
		{
			"bufferView":12,
			"componentType":5126,
			"count":4,
			"max":[
				1,
				1,
				1
			],
			"min":[
				-1,
				1,
				-1
			],
			"type":"VEC3"
		},
		{
			"bufferView":13,
			"componentType":5126,
			"count":4,
			"type":"VEC3"
		},
		{
			"bufferView":14,
			"componentType":5126,
			"count":4,
			"type":"VEC2"
		},
		{
			"bufferView":15,
			"componentType":5123,
			"count":6,
			"type":"SCALAR"
		}
	],
	"bufferViews":[
		{
			"buffer":0,
			"byteLength":288,
			"byteOffset":0,
			"target":34962
		},
		{
			"buffer":0,
			"byteLength":288,
			"byteOffset":288,
			"target":34962
		},
		{
			"buffer":0,
			"byteLength":192,
			"byteOffset":576,
			"target":34962
		},
		{
			"buffer":0,
			"byteLength":72,
			"byteOffset":768,
			"target":34963
		},
		{
			"buffer":0,
			"byteLength":177056,
			"byteOffset":840
		},
		{
			"buffer":0,
			"byteLength":288,
			"byteOffset":177896,
			"target":34962
		},
		{
			"buffer":0,
			"byteLength":288,
			"byteOffset":178184,
			"target":34962
		},
		{
			"buffer":0,
			"byteLength":192,
			"byteOffset":178472,
			"target":34962
		},
		{
			"buffer":0,
			"byteLength":240,
			"byteOffset":178664,
			"target":34962
		},
		{
			"buffer":0,
			"byteLength":240,
			"byteOffset":178904,
			"target":34962
		},
		{
			"buffer":0,
			"byteLength":160,
			"byteOffset":179144,
			"target":34962
		},
		{
			"buffer":0,
			"byteLength":60,
			"byteOffset":179304,
			"target":34963
		},
		{
			"buffer":0,
			"byteLength":48,
			"byteOffset":179364,
			"target":34962
		},
		{
			"buffer":0,
			"byteLength":48,
			"byteOffset":179412,
			"target":34962
		},
		{
			"buffer":0,
			"byteLength":32,
			"byteOffset":179460,
			"target":34962
		},
		{
			"buffer":0,
			"byteLength":12,
			"byteOffset":179492,
			"target":34963
		},
		{
			"buffer":0,
			"byteLength":73917,
			"byteOffset":179504
		}
	],
	"samplers":[
		{
			"magFilter":9729,
			"minFilter":9987
		}
	],
	"buffers":[
		{
			"byteLength":253424,
			"uri":"data:application/octet-stream;base64,"
		}
	]
}
