{
	"asset":{
		"generator":"Khronos glTF Blender I/O v3.6.27",
		"version":"2.0"
	},
	"scene":0,
	"scenes":[
		{
			"name":"Scene",
			"nodes":[
				0,
				1,
				3
			]
		}
	],
	"nodes":[
		{
			"mesh":0,
			"name":"etagere",
			"scale":[
				0.3738440275192261,
				0.04806286841630936,
				0.46260592341423035
			],
			"translation":[
				-1.8576031923294067,
				2.9751484394073486,
				3.42327618598938
			]
		},
		{
			"mesh":1,
			"name":"Torus.001",
			"scale":[
				0.1823890060186386,
				0.09379812330007553,
				0.1823890060186386
			],
			"translation":[
				-1.8665244579315186,
				3.1048953533172607,
				3.362576723098755
			]
		},
		{
			"mesh":2,
			"name":"Sphere",
			"rotation":[
				0,
				1,
				0,
				0
			],
			"scale":[
				-0.12014191597700119,
				-0.6533271074295044,
				-0.12014191597700119
			],
			"translation":[
				0,
				-0.986572265625,
				0
			]
		},
		{
			"children":[
				2
			],
			"mesh":3,
			"name":"Cube.007",
			"rotation":[
				0,
				1,
				0,
				0
			],
			"scale":[
				-0.2927607595920563,
				-0.018038911744952202,
				-0.2927607595920563
			],
			"translation":[
				-1.8665244579315186,
				3.2573273181915283,
				3.362576723098755
			]
		}
	],
	"materials":[
		{
			"doubleSided":true,
			"name":"deskPrimary",
			"pbrMetallicRoughness":{
				"baseColorFactor":[
					0.1930723935365677,
					0.050960883498191833,
					0,
					1
				],
				"metallicFactor":0,
				"roughnessFactor":0.5
			}
		},
		{
			"doubleSided":true,
			"name":"Material.008",
			"pbrMetallicRoughness":{
				"baseColorFactor":[
					0.8000000715255737,
					0.3417397737503052,
					0,
					1
				],
				"metallicFactor":0,
				"roughnessFactor":0.5
			}
		},
		{
			"doubleSided":true,
			"name":"Material.009",
			"pbrMetallicRoughness":{
				"baseColorFactor":[
					0,
					0,
					0,
					1
				],
				"metallicFactor":0,
				"roughnessFactor":0.5
			}
		}
	],
	"meshes":[
		{
			"name":"Cube.019",
			"primitives":[
				{
					"attributes":{
						"POSITION":0,
						"NORMAL":1,
						"TEXCOORD_0":2
					},
					"indices":3,
					"material":0
				}
			]
		},
		{
			"name":"Torus.001",
			"primitives":[
				{
					"attributes":{
						"POSITION":4,
						"NORMAL":5,
						"TEXCOORD_0":6
					},
					"indices":7,
					"material":1
				},
				{
					"attributes":{
						"POSITION":8,
						"NORMAL":9,
						"TEXCOORD_0":10
					},
					"indices":11,
					"material":2
				}
			]
		},
		{
			"name":"Sphere",
			"primitives":[
				{
					"attributes":{
						"POSITION":12,
						"NORMAL":13,
						"TEXCOORD_0":14
					},
					"indices":15,
					"material":1
				}
			]
		},
		{
			"name":"Cube.002",
			"primitives":[
				{
					"attributes":{
						"POSITION":16,
						"NORMAL":17,
						"TEXCOORD_0":18
					},
					"indices":19,
					"material":2
				}
			]
		}
	],
	"accessors":[
		{
			"bufferView":0,
			"componentType":5126,
			"count":24,
			"max":[
				1,
				1,
				1
			],
			"min":[
				-1,
				-1,
				-1
			],
			"type":"VEC3"
		},
		{
			"bufferView":1,
			"componentType":5126,
			"count":24,
			"type":"VEC3"
		},
		{
			"bufferView":2,
			"componentType":5126,
			"count":24,
			"type":"VEC2"
		},
		{
			"bufferView":3,
			"componentType":5123,
			"count":36,
			"type":"SCALAR"
		},
		{
			"bufferView":4,
			"componentType":5126,
			"count":1862,
			"max":[
				1.2907049655914307,
				0.25,
				1.2907049655914307
			],
			"min":[
				-1.2907049655914307,
				-0.7650935649871826,
				-1.2907049655914307
			],
			"type":"VEC3"
		},
		{
			"bufferView":5,
			"componentType":5126,
			"count":1862,
			"type":"VEC3"
		},
		{
			"bufferView":6,
			"componentType":5126,
			"count":1862,
			"type":"VEC2"
		},
		{
			"bufferView":7,
			"componentType":5123,
			"count":6912,
			"type":"SCALAR"
		},
		{
			"bufferView":8,
			"componentType":5126,
			"count":196,
			"max":[
				1.2534435987472534,
				1.7264350652694702,
				1.2534435987472534
			],
			"min":[
				-1.2534435987472534,
				-0.913303792476654,
				-1.2534435987472534
			],
			"type":"VEC3"
		},
		{
			"bufferView":9,
			"componentType":5126,
			"count":196,
			"type":"VEC3"
		},
		{
			"bufferView":10,
			"componentType":5126,
			"count":196,
			"type":"VEC2"
		},
		{
			"bufferView":11,
			"componentType":5123,
			"count":564,
			"type":"SCALAR"
		},
		{
			"bufferView":12,
			"componentType":5126,
			"count":1984,
			"max":[
				0.9999997019767761,
				1,
				0.9999993443489075
			],
			"min":[
				-0.9999990463256836,
				-1,
				-1
			],
			"type":"VEC3"
		},
		{
			"bufferView":13,
			"componentType":5126,
			"count":1984,
			"type":"VEC3"
		},
		{
			"bufferView":14,
			"componentType":5126,
			"count":1984,
			"type":"VEC2"
		},
		{
			"bufferView":15,
			"componentType":5123,
			"count":2880,
			"type":"SCALAR"
		},
		{
			"bufferView":16,
			"componentType":5126,
			"count":1536,
			"max":[
				1,
				1,
				1
			],
			"min":[
				-1,
				-1,
				-1
			],
			"type":"VEC3"
		},
		{
			"bufferView":17,
			"componentType":5126,
			"count":1536,
			"type":"VEC3"
		},
		{
			"bufferView":18,
			"componentType":5126,
			"count":1536,
			"type":"VEC2"
		},
		{
			"bufferView":19,
			"componentType":5123,
			"count":2292,
			"type":"SCALAR"
		}
	],
	"bufferViews":[
		{
			"buffer":0,
			"byteLength":288,
			"byteOffset":0,
			"target":34962
		},
		{
			"buffer":0,
			"byteLength":288,
			"byteOffset":288,
			"target":34962
		},
		{
			"buffer":0,
			"byteLength":192,
			"byteOffset":576,
			"target":34962
		},
		{
			"buffer":0,
			"byteLength":72,
			"byteOffset":768,
			"target":34963
		},
		{
			"buffer":0,
			"byteLength":22344,
			"byteOffset":840,
			"target":34962
		},
		{
			"buffer":0,
			"byteLength":22344,
			"byteOffset":23184,
			"target":34962
		},
		{
			"buffer":0,
			"byteLength":14896,
			"byteOffset":45528,
			"target":34962
		},
		{
			"buffer":0,
			"byteLength":13824,
			"byteOffset":60424,
			"target":34963
		},
		{
			"buffer":0,
			"byteLength":2352,
			"byteOffset":74248,
			"target":34962
		},
		{
			"buffer":0,
			"byteLength":2352,
			"byteOffset":76600,
			"target":34962
		},
		{
			"buffer":0,
			"byteLength":1568,
			"byteOffset":78952,
			"target":34962
		},
		{
			"buffer":0,
			"byteLength":1128,
			"byteOffset":80520,
			"target":34963
		},
		{
			"buffer":0,
			"byteLength":23808,
			"byteOffset":81648,
			"target":34962
		},
		{
			"buffer":0,
			"byteLength":23808,
			"byteOffset":105456,
			"target":34962
		},
		{
			"buffer":0,
			"byteLength":15872,
			"byteOffset":129264,
			"target":34962
		},
		{
			"buffer":0,
			"byteLength":5760,
			"byteOffset":145136,
			"target":34963
		},
		{
			"buffer":0,
			"byteLength":18432,
			"byteOffset":150896,
			"target":34962
		},
		{
			"buffer":0,
			"byteLength":18432,
			"byteOffset":169328,
			"target":34962
		},
		{
			"buffer":0,
			"byteLength":12288,
			"byteOffset":187760,
			"target":34962
		},
		{
			"buffer":0,
			"byteLength":4584,
			"byteOffset":200048,
			"target":34963
		}
	],
	"buffers":[
		{
			"byteLength":204632,
			"uri":"data:application/octet-stream;base64,"
		}
	]
}
