{
	"asset":{
		"generator":"Khronos glTF Blender I/O v3.6.27",
		"version":"2.0"
	},
	"scene":0,
	"scenes":[
		{
			"name":"Scene",
			"nodes":[
				0,
				1
			]
		}
	],
	"nodes":[
		{
			"mesh":0,
			"name":"noteBook",
			"rotation":[
				0,
				-0.2274085134267807,
				0,
				0.9737995266914368
			],
			"scale":[
				0.2428084909915924,
				0.012368056923151016,
				0.28590697050094604
			],
			"translation":[
				-0.1920088827610016,
				1.483890414237976,
				-1.4502251148223877
			]
		},
		{
			"mesh":1,
			"name":"noteBook.001",
			"rotation":[
				0,
				-0.2274085134267807,
				0,
				0.9737995266914368
			],
			"scale":[
				0.2428084909915924,
				0.012368056923151016,
				0.28590697050094604
			],
			"translation":[
				-0.1920088827610016,
				1.483890414237976,
				-1.4502251148223877
			]
		}
	],
	"materials":[
		{
			"doubleSided":true,
			"name":"BasketBall.001",
			"pbrMetallicRoughness":{
				"baseColorFactor":[
					0,
					0,
					0,
					1
				],
				"metallicFactor":0,
				"roughnessFactor":0.4000000059604645
			}
		},
		{
			"doubleSided":true,
			"name":"White.001",
			"pbrMetallicRoughness":{
				"roughnessFactor":0.5
			}
		},
		{
			"doubleSided":true,
			"name":"Material.021",
			"pbrMetallicRoughness":{
				"baseColorTexture":{
					"index":0
				},
				"metallicFactor":0,
				"roughnessFactor":0.5
			}
		}
	],
	"meshes":[
		{
			"name":"Cube.016",
			"primitives":[
				{
					"attributes":{
						"POSITION":0,
						"NORMAL":1,
						"TEXCOORD_0":2
					},
					"indices":3,
					"material":0
				},
				{
					"attributes":{
						"POSITION":4,
						"NORMAL":5,
						"TEXCOORD_0":6
					},
					"indices":7,
					"material":1
				}
			]
		},
		{
			"name":"Cube.060",
			"primitives":[
				{
					"attributes":{
						"POSITION":8,
						"NORMAL":9,
						"TEXCOORD_0":10
					},
					"indices":11,
					"material":2
				}
			]
		}
	],
	"textures":[
		{
			"sampler":0,
			"source":0
		}
	],
	"images":[
		{
			"bufferView":12,
			"mimeType":"image/jpeg",
			"name":"IMG_7356F42FE840-1"
		}
	],
	"accessors":[
		{
			"bufferView":0,
			"componentType":5126,
			"count":125,
			"max":[
				1,
				1,
				1
			],
			"min":[
				-1,
				-0.16730833053588867,
				-1
			],
			"type":"VEC3"
		},
		{
			"bufferView":1,
			"componentType":5126,
			"count":125,
			"type":"VEC3"
		},
		{
			"bufferView":2,
			"componentType":5126,
			"count":125,
			"type":"VEC2"
		},
		{
			"bufferView":3,
			"componentType":5123,
			"count":258,
			"type":"SCALAR"
		},
		{
			"bufferView":4,
			"componentType":5126,
			"count":24,
			"max":[
				0.9484190344810486,
				2.521939754486084,
				0.9630510807037354
			],
			"min":[
				-0.9484190344810486,
				1,
				-0.9630510807037354
			],
			"type":"VEC3"
		},
		{
			"bufferView":5,
			"componentType":5126,
			"count":24,
			"type":"VEC3"
		},
		{
			"bufferView":6,
			"componentType":5126,
			"count":24,
			"type":"VEC2"
		},
		{
			"bufferView":7,
			"componentType":5123,
			"count":42,
			"type":"SCALAR"
		},
		{
			"bufferView":8,
			"componentType":5126,
			"count":4,
			"max":[
				0.9484190344810486,
				2.521939754486084,
				0.9079616069793701
			],
			"min":[
				-0.9484190344810486,
				1.0684748888015747,
				0
			],
			"type":"VEC3"
		},
		{
			"bufferView":9,
			"componentType":5126,
			"count":4,
			"type":"VEC3"
		},
		{
			"bufferView":10,
			"componentType":5126,
			"count":4,
			"type":"VEC2"
		},
		{
			"bufferView":11,
			"componentType":5123,
			"count":6,
			"type":"SCALAR"
		}
	],
	"bufferViews":[
		{
			"buffer":0,
			"byteLength":1500,
			"byteOffset":0,
			"target":34962
		},
		{
			"buffer":0,
			"byteLength":1500,
			"byteOffset":1500,
			"target":34962
		},
		{
			"buffer":0,
			"byteLength":1000,
			"byteOffset":3000,
			"target":34962
		},
		{
			"buffer":0,
			"byteLength":516,
			"byteOffset":4000,
			"target":34963
		},
		{
			"buffer":0,
			"byteLength":288,
			"byteOffset":4516,
			"target":34962
		},
		{
			"buffer":0,
			"byteLength":288,
			"byteOffset":4804,
			"target":34962
		},
		{
			"buffer":0,
			"byteLength":192,
			"byteOffset":5092,
			"target":34962
		},
		{
			"buffer":0,
			"byteLength":84,
			"byteOffset":5284,
			"target":34963
		},
		{
			"buffer":0,
			"byteLength":48,
			"byteOffset":5368,
			"target":34962
		},
		{
			"buffer":0,
			"byteLength":48,
			"byteOffset":5416,
			"target":34962
		},
		{
			"buffer":0,
			"byteLength":32,
			"byteOffset":5464,
			"target":34962
		},
		{
			"buffer":0,
			"byteLength":12,
			"byteOffset":5496,
			"target":34963
		},
		{
			"buffer":0,
			"byteLength":549746,
			"byteOffset":5508
		}
	],
	"samplers":[
		{
			"magFilter":9729,
			"minFilter":9987
		}
	],
	"buffers":[
		{
			"byteLength":555256,
			"uri":"data:application/octet-stream;base64,"
		}
	]
}
