{
	"asset":{
		"generator":"Khronos glTF Blender I/O v3.6.27",
		"version":"2.0"
	},
	"scene":0,
	"scenes":[
		{
			"name":"Scene",
			"nodes":[
				0,
				1
			]
		}
	],
	"nodes":[
		{
			"mesh":0,
			"name":"noteBook",
			"rotation":[
				0,
				-0.2274085134267807,
				0,
				0.9737995266914368
			],
			"scale":[
				0.2428084909915924,
				0.012368056923151016,
				0.28590697050094604
			],
			"translation":[
				-0.2980557978153229,
				1.483890414237976,
				-2.0474982261657715
			]
		},
		{
			"mesh":1,
			"name":"Plane",
			"rotation":[
				0,
				-0.2274085134267807,
				0,
				0.9737995266914368
			],
			"scale":[
				0.261718213558197,
				1.0460058450698853,
				0.004075488541275263
			],
			"translation":[
				-0.29838424921035767,
				1.4980919361114502,
				-2.0476603507995605
			]
		}
	],
	"materials":[
		{
			"doubleSided":true,
			"name":"BasketBall",
			"pbrMetallicRoughness":{
				"baseColorFactor":[
					0,
					0,
					0,
					1
				],
				"metallicFactor":0,
				"roughnessFactor":0.4000000059604645
			}
		},
		{
			"doubleSided":true,
			"name":"White.001",
			"pbrMetallicRoughness":{
				"baseColorFactor":[
					0.800000011920929,
					0.800000011920929,
					0.800000011920929,
					1
				],
				"metallicFactor":0,
				"roughnessFactor":0.5
			}
		},
		{
			"doubleSided":true,
			"name":"pagebook",
			"pbrMetallicRoughness":{
				"baseColorTexture":{
					"index":0
				},
				"metallicFactor":0,
				"roughnessFactor":0.5
			}
		},
		{
			"doubleSided":true,
			"name":"Material.006",
			"pbrMetallicRoughness":{
				"baseColorFactor":[
					0.1652849167585373,
					0.004264969378709793,
					0.002400103723630309,
					1
				],
				"metallicFactor":0,
				"roughnessFactor":0.5
			}
		}
	],
	"meshes":[
		{
			"name":"Cube.005",
			"primitives":[
				{
					"attributes":{
						"POSITION":0,
						"NORMAL":1,
						"TEXCOORD_0":2
					},
					"indices":3,
					"material":0
				},
				{
					"attributes":{
						"POSITION":4,
						"NORMAL":5,
						"TEXCOORD_0":6
					},
					"indices":7,
					"material":1
				},
				{
					"attributes":{
						"POSITION":8,
						"NORMAL":9,
						"TEXCOORD_0":10
					},
					"indices":11,
					"material":2
				}
			]
		},
		{
			"name":"Plane",
			"primitives":[
				{
					"attributes":{
						"POSITION":12,
						"NORMAL":13,
						"TEXCOORD_0":14
					},
					"indices":15,
					"material":3
				}
			]
		}
	],
	"textures":[
		{
			"sampler":0,
			"source":0
		}
	],
	"images":[
		{
			"bufferView":12,
			"mimeType":"image/jpeg",
			"name":"IMG_2F7A4E9A35ED-1"
		}
	],
	"accessors":[
		{
			"bufferView":0,
			"componentType":5126,
			"count":125,
			"max":[
				1,
				1,
				1
			],
			"min":[
				-1,
				-0.16730833053588867,
				-1
			],
			"type":"VEC3"
		},
		{
			"bufferView":1,
			"componentType":5126,
			"count":125,
			"type":"VEC3"
		},
		{
			"bufferView":2,
			"componentType":5126,
			"count":125,
			"type":"VEC2"
		},
		{
			"bufferView":3,
			"componentType":5123,
			"count":258,
			"type":"SCALAR"
		},
		{
			"bufferView":4,
			"componentType":5126,
			"count":24,
			"max":[
				0.9484190344810486,
				2.521939754486084,
				0.9630510807037354
			],
			"min":[
				-0.9484190344810486,
				1,
				-0.9630510807037354
			],
			"type":"VEC3"
		},
		{
			"bufferView":5,
			"componentType":5126,
			"count":24,
			"type":"VEC3"
		},
		{
			"bufferView":6,
			"componentType":5126,
			"count":24,
			"type":"VEC2"
		},
		{
			"bufferView":7,
			"componentType":5123,
			"count":42,
			"type":"SCALAR"
		},
		{
			"bufferView":8,
			"componentType":5126,
			"count":4,
			"max":[
				0.9484189748764038,
				2.521939516067505,
				0.9079616069793701
			],
			"min":[
				-0.9484189748764038,
				1.0684747695922852,
				-2.8265086271517248e-08
			],
			"type":"VEC3"
		},
		{
			"bufferView":9,
			"componentType":5126,
			"count":4,
			"type":"VEC3"
		},
		{
			"bufferView":10,
			"componentType":5126,
			"count":4,
			"type":"VEC2"
		},
		{
			"bufferView":11,
			"componentType":5123,
			"count":6,
			"type":"SCALAR"
		},
		{
			"bufferView":13,
			"componentType":5126,
			"count":20,
			"max":[
				0.9027661085128784,
				0,
				1
			],
			"min":[
				-0.8868356943130493,
				-0.0011164814932271838,
				-1
			],
			"type":"VEC3"
		},
		{
			"bufferView":14,
			"componentType":5126,
			"count":20,
			"type":"VEC3"
		},
		{
			"bufferView":15,
			"componentType":5126,
			"count":20,
			"type":"VEC2"
		},
		{
			"bufferView":16,
			"componentType":5123,
			"count":36,
			"type":"SCALAR"
		}
	],
	"bufferViews":[
		{
			"buffer":0,
			"byteLength":1500,
			"byteOffset":0,
			"target":34962
		},
		{
			"buffer":0,
			"byteLength":1500,
			"byteOffset":1500,
			"target":34962
		},
		{
			"buffer":0,
			"byteLength":1000,
			"byteOffset":3000,
			"target":34962
		},
		{
			"buffer":0,
			"byteLength":516,
			"byteOffset":4000,
			"target":34963
		},
		{
			"buffer":0,
			"byteLength":288,
			"byteOffset":4516,
			"target":34962
		},
		{
			"buffer":0,
			"byteLength":288,
			"byteOffset":4804,
			"target":34962
		},
		{
			"buffer":0,
			"byteLength":192,
			"byteOffset":5092,
			"target":34962
		},
		{
			"buffer":0,
			"byteLength":84,
			"byteOffset":5284,
			"target":34963
		},
		{
			"buffer":0,
			"byteLength":48,
			"byteOffset":5368,
			"target":34962
		},
		{
			"buffer":0,
			"byteLength":48,
			"byteOffset":5416,
			"target":34962
		},
		{
			"buffer":0,
			"byteLength":32,
			"byteOffset":5464,
			"target":34962
		},
		{
			"buffer":0,
			"byteLength":12,
			"byteOffset":5496,
			"target":34963
		},
		{
			"buffer":0,
			"byteLength":53515,
			"byteOffset":5508
		},
		{
			"buffer":0,
			"byteLength":240,
			"byteOffset":59024,
			"target":34962
		},
		{
			"buffer":0,
			"byteLength":240,
			"byteOffset":59264,
			"target":34962
		},
		{
			"buffer":0,
			"byteLength":160,
			"byteOffset":59504,
			"target":34962
		},
		{
			"buffer":0,
			"byteLength":72,
			"byteOffset":59664,
			"target":34963
		}
	],
	"samplers":[
		{
			"magFilter":9729,
			"minFilter":9987
		}
	],
	"buffers":[
		{
			"byteLength":59736,
			"uri":"data:application/octet-stream;base64,"
		}
	]
}
