{
	"asset":{
		"generator":"Khronos glTF Blender I/O v3.6.27",
		"version":"2.0"
	},
	"scene":0,
	"scenes":[
		{
			"name":"Scene",
			"nodes":[
				0
			]
		}
	],
	"nodes":[
		{
			"mesh":0,
			"name":"mail",
			"scale":[
				0.008283101953566074,
				0.001773652620613575,
				0.008283101953566074
			],
			"translation":[
				0.553464412689209,
				1.5865490436553955,
				1.4443891048431396
			]
		}
	],
	"materials":[
		{
			"doubleSided":true,
			"name":"Material.011",
			"pbrMetallicRoughness":{
				"baseColorTexture":{
					"index":0
				},
				"metallicFactor":0,
				"roughnessFactor":0.5
			}
		}
	],
	"meshes":[
		{
			"name":"Cylinder.005",
			"primitives":[
				{
					"attributes":{
						"POSITION":0,
						"NORMAL":1,
						"TEXCOORD_0":2
					},
					"indices":3,
					"material":0
				}
			]
		}
	],
	"textures":[
		{
			"sampler":0,
			"source":0
		}
	],
	"images":[
		{
			"bufferView":4,
			"mimeType":"image/jpeg",
			"name":"gmail"
		}
	],
	"accessors":[
		{
			"bufferView":0,
			"componentType":5126,
			"count":252,
			"max":[
				0.7230987548828125,
				4.226731300354004,
				1.003050446510315
			],
			"min":[
				-0.683785080909729,
				-4.525533676147461,
				-0.9927569627761841
			],
			"type":"VEC3"
		},
		{
			"bufferView":1,
			"componentType":5126,
			"count":252,
			"type":"VEC3"
		},
		{
			"bufferView":2,
			"componentType":5126,
			"count":252,
			"type":"VEC2"
		},
		{
			"bufferView":3,
			"componentType":5123,
			"count":372,
			"type":"SCALAR"
		}
	],
	"bufferViews":[
		{
			"buffer":0,
			"byteLength":3024,
			"byteOffset":0,
			"target":34962
		},
		{
			"buffer":0,
			"byteLength":3024,
			"byteOffset":3024,
			"target":34962
		},
		{
			"buffer":0,
			"byteLength":2016,
			"byteOffset":6048,
			"target":34962
		},
		{
			"buffer":0,
			"byteLength":744,
			"byteOffset":8064,
			"target":34963
		},
		{
			"buffer":0,
			"byteLength":20865,
			"byteOffset":8808
		}
	],
	"samplers":[
		{
			"magFilter":9729,
			"minFilter":9987
		}
	],
	"buffers":[
		{
			"byteLength":29676,
			"uri":"data:application/octet-stream;base64,"
		}
	]
}
