{
	"asset":{
		"generator":"Khronos glTF Blender I/O v3.6.27",
		"version":"2.0"
	},
	"extensionsUsed":[
		"KHR_materials_clearcoat"
	],
	"scene":0,
	"scenes":[
		{
			"name":"Scene",
			"nodes":[
				0,
				1,
				2,
				3,
				4
			]
		}
	],
	"nodes":[
		{
			"mesh":0,
			"name":"basePhone",
			"scale":[
				0.16429844498634338,
				0.015723999589681625,
				0.16429844498634338
			],
			"translation":[
				0.43800997734069824,
				1.4960870742797852,
				1.4529799222946167
			]
		},
		{
			"mesh":1,
			"name":"cadran",
			"scale":[
				0.07024651020765305,
				0.006072400603443384,
				0.070159412920475
			],
			"translation":[
				0.5224313735961914,
				1.6355934143066406,
				1.4529284238815308
			]
		},
		{
			"mesh":2,
			"name":"Cube.023",
			"scale":[
				0.2089940309524536,
				0.016082359477877617,
				0.026672320440411568
			],
			"translation":[
				0.43821680545806885,
				1.7618895769119263,
				1.4555855989456177
			]
		},
		{
			"mesh":3,
			"name":"Cube.024",
			"scale":[
				0.04750994220376015,
				0.04750994220376015,
				0.032082054764032364
			],
			"translation":[
				0.4380062222480774,
				1.7306019067764282,
				1.267972707748413
			]
		},
		{
			"mesh":4,
			"name":"keys",
			"scale":[
				0.008283101953566074,
				0.001773652620613575,
				0.008283101953566074
			],
			"translation":[
				0.5249032974243164,
				1.6380410194396973,
				1.4542642831802368
			]
		}
	],
	"materials":[
		{
			"doubleSided":true,
			"extensions":{
				"KHR_materials_clearcoat":{
					"clearcoatFactor":1,
					"clearcoatRoughnessFactor":0.10778442770242691
				}
			},
			"name":"Material.013",
			"pbrMetallicRoughness":{
				"baseColorFactor":[
					0,
					0,
					0,
					1
				],
				"roughnessFactor":0.5
			}
		},
		{
			"doubleSided":true,
			"name":"White",
			"pbrMetallicRoughness":{
				"baseColorFactor":[
					0.800000011920929,
					0.800000011920929,
					0.800000011920929,
					1
				],
				"metallicFactor":0
			}
		},
		{
			"doubleSided":true,
			"extensions":{
				"KHR_materials_clearcoat":{
					"clearcoatFactor":1,
					"clearcoatRoughnessFactor":0.10778442770242691
				}
			},
			"name":"Material.004",
			"pbrMetallicRoughness":{
				"baseColorFactor":[
					0,
					0,
					0,
					1
				],
				"roughnessFactor":0.5
			}
		},
		{
			"doubleSided":true,
			"name":"BasketBall",
			"pbrMetallicRoughness":{
				"baseColorFactor":[
					0,
					0,
					0,
					1
				],
				"metallicFactor":0,
				"roughnessFactor":0.4000000059604645
			}
		}
	],
	"meshes":[
		{
			"name":"Cube.001",
			"primitives":[
				{
					"attributes":{
						"POSITION":0,
						"NORMAL":1,
						"TEXCOORD_0":2
					},
					"indices":3,
					"material":0
				}
			]
		},
		{
			"name":"Cylinder.004",
			"primitives":[
				{
					"attributes":{
						"POSITION":4,
						"NORMAL":5,
						"TEXCOORD_0":6
					},
					"indices":7,
					"material":1
				}
			]
		},
		{
			"name":"Cube.002",
			"primitives":[
				{
					"attributes":{
						"POSITION":8,
						"NORMAL":9,
						"TEXCOORD_0":10
					},
					"indices":11,
					"material":0
				}
			]
		},
		{
			"name":"Cube.003",
			"primitives":[
				{
					"attributes":{
						"POSITION":12,
						"NORMAL":13,
						"TEXCOORD_0":14
					},
					"indices":15,
					"material":2
				}
			]
		},
		{
			"name":"Cylinder.002",
			"primitives":[
				{
					"attributes":{
						"POSITION":16,
						"NORMAL":17,
						"TEXCOORD_0":18
					},
					"indices":19,
					"material":3
				}
			]
		}
	],
	"accessors":[
		{
			"bufferView":0,
			"componentType":5126,
			"count":504,
			"max":[
				1.0005697011947632,
				16.96304702758789,
				1.0005697011947632
			],
			"min":[
				-1.0005697011947632,
				-1,
				-1.0005697011947632
			],
			"type":"VEC3"
		},
		{
			"bufferView":1,
			"componentType":5126,
			"count":504,
			"type":"VEC3"
		},
		{
			"bufferView":2,
			"componentType":5126,
			"count":504,
			"type":"VEC2"
		},
		{
			"bufferView":3,
			"componentType":5123,
			"count":1386,
			"type":"SCALAR"
		},
		{
			"bufferView":4,
			"componentType":5126,
			"count":3230,
			"max":[
				0.5598140358924866,
				10.590006828308105,
				1.0012874603271484
			],
			"min":[
				-0.5598138570785522,
				-10.590006828308105,
				-1.0012874603271484
			],
			"type":"VEC3"
		},
		{
			"bufferView":5,
			"componentType":5126,
			"count":3230,
			"type":"VEC3"
		},
		{
			"bufferView":6,
			"componentType":5126,
			"count":3230,
			"type":"VEC2"
		},
		{
			"bufferView":7,
			"componentType":5123,
			"count":5010,
			"type":"SCALAR"
		},
		{
			"bufferView":8,
			"componentType":5126,
			"count":68,
			"max":[
				0.12803490459918976,
				1,
				5.308256149291992
			],
			"min":[
				-0.12803490459918976,
				-1,
				-5.308256149291992
			],
			"type":"VEC3"
		},
		{
			"bufferView":9,
			"componentType":5126,
			"count":68,
			"type":"VEC3"
		},
		{
			"bufferView":10,
			"componentType":5126,
			"count":68,
			"type":"VEC2"
		},
		{
			"bufferView":11,
			"componentType":5123,
			"count":144,
			"type":"SCALAR"
		},
		{
			"bufferView":12,
			"componentType":5126,
			"count":442,
			"max":[
				1.3192133903503418,
				1,
				13.829625129699707
			],
			"min":[
				-1.3090909719467163,
				-0.6248488426208496,
				-2.1335208415985107
			],
			"type":"VEC3"
		},
		{
			"bufferView":13,
			"componentType":5126,
			"count":442,
			"type":"VEC3"
		},
		{
			"bufferView":14,
			"componentType":5126,
			"count":442,
			"type":"VEC2"
		},
		{
			"bufferView":15,
			"componentType":5123,
			"count":744,
			"type":"SCALAR"
		},
		{
			"bufferView":16,
			"componentType":5126,
			"count":2506,
			"max":[
				2.623337745666504,
				33.01068115234375,
				7.965845108032227
			],
			"min":[
				-4.032381057739258,
				-20.972179412841797,
				-8.128698348999023
			],
			"type":"VEC3"
		},
		{
			"bufferView":17,
			"componentType":5126,
			"count":2506,
			"type":"VEC3"
		},
		{
			"bufferView":18,
			"componentType":5126,
			"count":2506,
			"type":"VEC2"
		},
		{
			"bufferView":19,
			"componentType":5123,
			"count":3720,
			"type":"SCALAR"
		}
	],
	"bufferViews":[
		{
			"buffer":0,
			"byteLength":6048,
			"byteOffset":0,
			"target":34962
		},
		{
			"buffer":0,
			"byteLength":6048,
			"byteOffset":6048,
			"target":34962
		},
		{
			"buffer":0,
			"byteLength":4032,
			"byteOffset":12096,
			"target":34962
		},
		{
			"buffer":0,
			"byteLength":2772,
			"byteOffset":16128,
			"target":34963
		},
		{
			"buffer":0,
			"byteLength":38760,
			"byteOffset":18900,
			"target":34962
		},
		{
			"buffer":0,
			"byteLength":38760,
			"byteOffset":57660,
			"target":34962
		},
		{
			"buffer":0,
			"byteLength":25840,
			"byteOffset":96420,
			"target":34962
		},
		{
			"buffer":0,
			"byteLength":10020,
			"byteOffset":122260,
			"target":34963
		},
		{
			"buffer":0,
			"byteLength":816,
			"byteOffset":132280,
			"target":34962
		},
		{
			"buffer":0,
			"byteLength":816,
			"byteOffset":133096,
			"target":34962
		},
		{
			"buffer":0,
			"byteLength":544,
			"byteOffset":133912,
			"target":34962
		},
		{
			"buffer":0,
			"byteLength":288,
			"byteOffset":134456,
			"target":34963
		},
		{
			"buffer":0,
			"byteLength":5304,
			"byteOffset":134744,
			"target":34962
		},
		{
			"buffer":0,
			"byteLength":5304,
			"byteOffset":140048,
			"target":34962
		},
		{
			"buffer":0,
			"byteLength":3536,
			"byteOffset":145352,
			"target":34962
		},
		{
			"buffer":0,
			"byteLength":1488,
			"byteOffset":148888,
			"target":34963
		},
		{
			"buffer":0,
			"byteLength":30072,
			"byteOffset":150376,
			"target":34962
		},
		{
			"buffer":0,
			"byteLength":30072,
			"byteOffset":180448,
			"target":34962
		},
		{
			"buffer":0,
			"byteLength":20048,
			"byteOffset":210520,
			"target":34962
		},
		{
			"buffer":0,
			"byteLength":7440,
			"byteOffset":230568,
			"target":34963
		}
	],
	"buffers":[
		{
			"byteLength":238008,
			"uri":"data:application/octet-stream;base64,"
		}
	]
}
