{
	"asset":{
		"generator":"Khronos glTF Blender I/O v3.6.27",
		"version":"2.0"
	},
	"scene":0,
	"scenes":[
		{
			"name":"Scene",
			"nodes":[
				0,
				1,
				2,
				3,
				4
			]
		}
	],
	"nodes":[
		{
			"mesh":0,
			"name":"room",
			"scale":[
				4,
				0.12021596729755402,
				4
			],
			"translation":[
				-1.906249761581421,
				1.2800538539886475,
				2.051392078399658
			]
		},
		{
			"mesh":1,
			"name":"Cube.049",
			"rotation":[
				0,
				0,
				-1,
				0
			],
			"scale":[
				-0.1869215965270996,
				-0.05949987471103668,
				-5.072863578796387
			],
			"translation":[
				3.811159372329712,
				0.09705207496881485,
				0.527092456817627
			]
		},
		{
			"mesh":2,
			"name":"Cube.053",
			"rotation":[
				0,
				0,
				-1,
				0
			],
			"scale":[
				-0.1869215965270996,
				-0.05949987471103668,
				-5.072863578796387
			],
			"translation":[
				3.417086124420166,
				0.09705207496881485,
				0.9014368057250977
			]
		},
		{
			"mesh":3,
			"name":"Cube.046",
			"rotation":[
				0,
				0,
				-1,
				0
			],
			"scale":[
				-0.1869215965270996,
				-0.05949987471103668,
				-5.072863578796387
			],
			"translation":[
				0.9325649738311768,
				0.09705207496881485,
				0.5270927548408508
			]
		},
		{
			"mesh":4,
			"name":"Cube.047",
			"rotation":[
				0,
				0,
				-1,
				0
			],
			"scale":[
				-0.1869215965270996,
				-0.05949987471103668,
				-5.072863578796387
			],
			"translation":[
				3.417086124420166,
				0.09705207496881485,
				0.9014368057250977
			]
		}
	],
	"materials":[
		{
			"doubleSided":true,
			"name":"walls.001",
			"pbrMetallicRoughness":{
				"baseColorFactor":[
					0.7912973165512085,
					0.7304602861404419,
					0.6239606142044067,
					1
				],
				"metallicFactor":0,
				"roughnessFactor":0.5
			}
		},
		{
			"doubleSided":true,
			"name":"Material.012",
			"pbrMetallicRoughness":{
				"baseColorFactor":[
					0.6375967860221863,
					0.43415337800979614,
					0.22322803735733032,
					1
				],
				"metallicFactor":0,
				"roughnessFactor":0.5
			}
		},
		{
			"doubleSided":true,
			"name":"Material.015",
			"pbrMetallicRoughness":{
				"baseColorFactor":[
					0.004391200374811888,
					0.05612834915518761,
					0.31854677200317383,
					1
				],
				"metallicFactor":0,
				"roughnessFactor":0.5
			}
		},
		{
			"doubleSided":true,
			"name":"Black",
			"pbrMetallicRoughness":{
				"baseColorFactor":[
					0,
					0,
					0,
					1
				],
				"metallicFactor":0
			}
		},
		{
			"doubleSided":true,
			"name":"Material.017",
			"pbrMetallicRoughness":{
				"baseColorFactor":[
					0.138431578874588,
					0.08228263258934021,
					0.04817184805870056,
					1
				],
				"metallicFactor":0,
				"roughnessFactor":0.5
			}
		}
	],
	"meshes":[
		{
			"name":"Cube.056",
			"primitives":[
				{
					"attributes":{
						"POSITION":0,
						"NORMAL":1,
						"TEXCOORD_0":2
					},
					"indices":3,
					"material":0
				},
				{
					"attributes":{
						"POSITION":4,
						"NORMAL":5,
						"TEXCOORD_0":6
					},
					"indices":7,
					"material":1
				},
				{
					"attributes":{
						"POSITION":8,
						"NORMAL":9,
						"TEXCOORD_0":10
					},
					"indices":11,
					"material":2
				},
				{
					"attributes":{
						"POSITION":12,
						"NORMAL":13,
						"TEXCOORD_0":14
					},
					"indices":15,
					"material":3
				}
			]
		},
		{
			"name":"Cube.073",
			"primitives":[
				{
					"attributes":{
						"POSITION":16,
						"NORMAL":17,
						"TEXCOORD_0":18
					},
					"indices":19,
					"material":4
				}
			]
		},
		{
			"name":"Cube.077",
			"primitives":[
				{
					"attributes":{
						"POSITION":20,
						"NORMAL":21,
						"TEXCOORD_0":22
					},
					"indices":23,
					"material":4
				}
			]
		},
		{
			"name":"Cube.078",
			"primitives":[
				{
					"attributes":{
						"POSITION":24,
						"NORMAL":25,
						"TEXCOORD_0":26
					},
					"indices":27,
					"material":4
				}
			]
		},
		{
			"name":"Cube.079",
			"primitives":[
				{
					"attributes":{
						"POSITION":28,
						"NORMAL":29,
						"TEXCOORD_0":30
					},
					"indices":31,
					"material":4
				}
			]
		}
	],
	"accessors":[
		{
			"bufferView":0,
			"componentType":5126,
			"count":95,
			"max":[
				1.4765625,
				31.94385528564453,
				0.6421875357627869
			],
			"min":[
				-0.5234375596046448,
				-11.64795207977295,
				-1.3578124046325684
			],
			"type":"VEC3"
		},
		{
			"bufferView":1,
			"componentType":5126,
			"count":95,
			"type":"VEC3"
		},
		{
			"bufferView":2,
			"componentType":5126,
			"count":95,
			"type":"VEC2"
		},
		{
			"bufferView":3,
			"componentType":5123,
			"count":222,
			"type":"SCALAR"
		},
		{
			"bufferView":4,
			"componentType":5126,
			"count":16,
			"max":[
				1.4765623807907104,
				6.776700496673584,
				0.6421874761581421
			],
			"min":[
				-0.5234375,
				4.24889612197876,
				-1.3578122854232788
			],
			"type":"VEC3"
		},
		{
			"bufferView":5,
			"componentType":5126,
			"count":16,
			"type":"VEC3"
		},
		{
			"bufferView":6,
			"componentType":5126,
			"count":16,
			"type":"VEC2"
		},
		{
			"bufferView":7,
			"componentType":5123,
			"count":24,
			"type":"SCALAR"
		},
		{
			"bufferView":8,
			"componentType":5126,
			"count":16,
			"max":[
				1.4765625,
				4.24889612197876,
				0.6421875357627869
			],
			"min":[
				-0.5234375596046448,
				-9.64795207977295,
				-1.3578124046325684
			],
			"type":"VEC3"
		},
		{
			"bufferView":9,
			"componentType":5126,
			"count":16,
			"type":"VEC3"
		},
		{
			"bufferView":10,
			"componentType":5126,
			"count":16,
			"type":"VEC2"
		},
		{
			"bufferView":11,
			"componentType":5123,
			"count":24,
			"type":"SCALAR"
		},
		{
			"bufferView":12,
			"componentType":5126,
			"count":4,
			"max":[
				1.4765625,
				-9.64795207977295,
				0.5921875238418579
			],
			"min":[
				-0.4734375476837158,
				-9.64795207977295,
				-1.3578124046325684
			],
			"type":"VEC3"
		},
		{
			"bufferView":13,
			"componentType":5126,
			"count":4,
			"type":"VEC3"
		},
		{
			"bufferView":14,
			"componentType":5126,
			"count":4,
			"type":"VEC2"
		},
		{
			"bufferView":15,
			"componentType":5123,
			"count":6,
			"type":"SCALAR"
		},
		{
			"bufferView":16,
			"componentType":5126,
			"count":712,
			"max":[
				1,
				1,
				0.7669519186019897
			],
			"min":[
				-38.80000305175781,
				-1,
				-0.7871913909912109
			],
			"type":"VEC3"
		},
		{
			"bufferView":17,
			"componentType":5126,
			"count":712,
			"type":"VEC3"
		},
		{
			"bufferView":18,
			"componentType":5126,
			"count":712,
			"type":"VEC2"
		},
		{
			"bufferView":19,
			"componentType":5123,
			"count":1068,
			"type":"SCALAR"
		},
		{
			"bufferView":20,
			"componentType":5126,
			"count":668,
			"max":[
				1,
				1,
				0.8373286724090576
			],
			"min":[
				-34.60000228881836,
				-1,
				-0.7160454392433167
			],
			"type":"VEC3"
		},
		{
			"bufferView":21,
			"componentType":5126,
			"count":668,
			"type":"VEC3"
		},
		{
			"bufferView":22,
			"componentType":5126,
			"count":668,
			"type":"VEC2"
		},
		{
			"bufferView":23,
			"componentType":5123,
			"count":1002,
			"type":"SCALAR"
		},
		{
			"bufferView":24,
			"componentType":5126,
			"count":248,
			"max":[
				12.200008392333984,
				1,
				0.7669519782066345
			],
			"min":[
				-14.999994277954102,
				-1,
				-0.7871913313865662
			],
			"type":"VEC3"
		},
		{
			"bufferView":25,
			"componentType":5126,
			"count":248,
			"type":"VEC3"
		},
		{
			"bufferView":26,
			"componentType":5126,
			"count":248,
			"type":"VEC2"
		},
		{
			"bufferView":27,
			"componentType":5123,
			"count":372,
			"type":"SCALAR"
		},
		{
			"bufferView":28,
			"componentType":5126,
			"count":292,
			"max":[
				-11.59999942779541,
				1,
				0.8373286724090576
			],
			"min":[
				-38.80000305175781,
				-1,
				-0.7160454392433167
			],
			"type":"VEC3"
		},
		{
			"bufferView":29,
			"componentType":5126,
			"count":292,
			"type":"VEC3"
		},
		{
			"bufferView":30,
			"componentType":5126,
			"count":292,
			"type":"VEC2"
		},
		{
			"bufferView":31,
			"componentType":5123,
			"count":438,
			"type":"SCALAR"
		}
	],
	"bufferViews":[
		{
			"buffer":0,
			"byteLength":1140,
			"byteOffset":0,
			"target":34962
		},
		{
			"buffer":0,
			"byteLength":1140,
			"byteOffset":1140,
			"target":34962
		},
		{
			"buffer":0,
			"byteLength":760,
			"byteOffset":2280,
			"target":34962
		},
		{
			"buffer":0,
			"byteLength":444,
			"byteOffset":3040,
			"target":34963
		},
		{
			"buffer":0,
			"byteLength":192,
			"byteOffset":3484,
			"target":34962
		},
		{
			"buffer":0,
			"byteLength":192,
			"byteOffset":3676,
			"target":34962
		},
		{
			"buffer":0,
			"byteLength":128,
			"byteOffset":3868,
			"target":34962
		},
		{
			"buffer":0,
			"byteLength":48,
			"byteOffset":3996,
			"target":34963
		},
		{
			"buffer":0,
			"byteLength":192,
			"byteOffset":4044,
			"target":34962
		},
		{
			"buffer":0,
			"byteLength":192,
			"byteOffset":4236,
			"target":34962
		},
		{
			"buffer":0,
			"byteLength":128,
			"byteOffset":4428,
			"target":34962
		},
		{
			"buffer":0,
			"byteLength":48,
			"byteOffset":4556,
			"target":34963
		},
		{
			"buffer":0,
			"byteLength":48,
			"byteOffset":4604,
			"target":34962
		},
		{
			"buffer":0,
			"byteLength":48,
			"byteOffset":4652,
			"target":34962
		},
		{
			"buffer":0,
			"byteLength":32,
			"byteOffset":4700,
			"target":34962
		},
		{
			"buffer":0,
			"byteLength":12,
			"byteOffset":4732,
			"target":34963
		},
		{
			"buffer":0,
			"byteLength":8544,
			"byteOffset":4744,
			"target":34962
		},
		{
			"buffer":0,
			"byteLength":8544,
			"byteOffset":13288,
			"target":34962
		},
		{
			"buffer":0,
			"byteLength":5696,
			"byteOffset":21832,
			"target":34962
		},
		{
			"buffer":0,
			"byteLength":2136,
			"byteOffset":27528,
			"target":34963
		},
		{
			"buffer":0,
			"byteLength":8016,
			"byteOffset":29664,
			"target":34962
		},
		{
			"buffer":0,
			"byteLength":8016,
			"byteOffset":37680,
			"target":34962
		},
		{
			"buffer":0,
			"byteLength":5344,
			"byteOffset":45696,
			"target":34962
		},
		{
			"buffer":0,
			"byteLength":2004,
			"byteOffset":51040,
			"target":34963
		},
		{
			"buffer":0,
			"byteLength":2976,
			"byteOffset":53044,
			"target":34962
		},
		{
			"buffer":0,
			"byteLength":2976,
			"byteOffset":56020,
			"target":34962
		},
		{
			"buffer":0,
			"byteLength":1984,
			"byteOffset":58996,
			"target":34962
		},
		{
			"buffer":0,
			"byteLength":744,
			"byteOffset":60980,
			"target":34963
		},
		{
			"buffer":0,
			"byteLength":3504,
			"byteOffset":61724,
			"target":34962
		},
		{
			"buffer":0,
			"byteLength":3504,
			"byteOffset":65228,
			"target":34962
		},
		{
			"buffer":0,
			"byteLength":2336,
			"byteOffset":68732,
			"target":34962
		},
		{
			"buffer":0,
			"byteLength":876,
			"byteOffset":71068,
			"target":34963
		}
	],
	"buffers":[
		{
			"byteLength":71944,
			"uri":"data:application/octet-stream;base64,"
		}
	]
}
